<?xml version="1.0" encoding="UTF-8" standalone="no"?>
<svg
   xmlns:dc="http://purl.org/dc/elements/1.1/"
   xmlns:cc="http://creativecommons.org/ns#"
   xmlns:rdf="http://www.w3.org/1999/02/22-rdf-syntax-ns#"
   xmlns:svg="http://www.w3.org/2000/svg"
   xmlns="http://www.w3.org/2000/svg"
   xml:space="preserve"
   enable-background="new 0 0 24 24"
   viewBox="0 0 36 36"
   height="36"
   width="36"
   y="0px"
   x="0px"
   id="Layer_1"
   version="1.1"><metadata
     id="metadata13"><rdf:RDF><cc:Work
         rdf:about=""><dc:format>image/svg+xml</dc:format><dc:type
           rdf:resource="http://purl.org/dc/dcmitype/StillImage" /><dc:title></dc:title></cc:Work></rdf:RDF></metadata><defs
     id="defs11" /><g
     id="g3"
     transform="matrix(1.4091963,0,0,1.4076378,1.0896444,-1446.436)"><path
       style="fill:#ecf0f1"
       id="path5"
       d="m 4.222,1031.2 2.122,0.7 0.155,0.1 c 0.343,-0.2 0.698,-0.4 1.061,-0.6 l -0.066,-0.2 0.42,-2.2 1.944,-0.5 1.48,1.7 0.044,0.2 c 0.416,-0.1 0.822,-0.1 1.238,0 l 0.044,-0.2 1.479,-1.7 1.945,0.5 0.42,2.2 -0.066,0.2 c 0.363,0.2 0.718,0.4 1.061,0.6 l 0.155,-0.1 2.12,-0.7 1.414,1.4 -0.707,2.1 -0.153,0.2 c 0.226,0.3 0.438,0.7 0.618,1 l 0.199,0 2.188,0.4 0.53,1.9 -1.701,1.5 -0.177,0 c 0.025,0.5 0.025,0.9 0,1.3 l 0.177,0 1.701,1.5 -0.53,2 -2.188,0.4 -0.199,-0.1 c -0.18,0.4 -0.393,0.699 -0.618,1.1 l 0.153,0.1 0.707,2.1 -1.414,1.5 -2.12,-0.799 -0.155,-0.101 c -0.343,0.2 -0.697,0.399 -1.061,0.601 l 0.066,0.199 -0.42,2.2 -1.945,0.5 -1.479,-1.7 -0.044,-0.1 -1.238,0 -0.044,0.1 -1.48,1.7 -1.944,-0.5 -0.42,-2.2 0.066,-0.199 c -0.363,-0.201 -0.717,-0.4 -1.061,-0.601 l -0.154,0.101 -2.122,0.799 -1.414,-1.5 0.707,-2.1 0.155,-0.1 c -0.227,-0.4 -0.439,-0.699 -0.619,-1.1 l -0.199,0.1 -2.188,-0.4 -0.53,-2 1.702,-1.5 0.177,0 c -0.026,-0.4 -0.026,-0.8 0,-1.3 l -0.179,0 -1.702,-1.5 0.53,-1.9 2.188,-0.4 0.199,0 c 0.18,-0.3 0.392,-0.7 0.619,-1 l -0.155,-0.2 -0.707,-2.1 1.415,-1.4 0,0 z m 2.828,4.2 c -2.734,2.7 -2.734,7.199 0,9.9 2.733,2.699 7.166,2.699 9.9,0 2.733,-2.701 2.733,-7.201 0,-9.9 -2.734,-2.7 -7.166,-2.7 -9.9,0 z" /><path
       style="fill:#bdc3c7"
       id="path7"
       d="m 6.343,1034.7 c 3.124,-3.1 8.19,-3.1 11.314,0 3.124,3.1 3.124,8.2 0,11.3 -3.124,3.101 -8.19,3.1 -11.314,0 -3.124,-3.1 -3.124,-8.2 0,-11.3 l 0,0 z m 1.481,0.1 2.166,2.1 c 0.885,-0.5 1.896,-0.7 2.872,-0.4 l 1.393,-2.8 c -2.143,-0.7 -4.553,-0.3 -6.431,1.1 l 0,0 z m -1.414,1.4 c -1.407,1.9 -1.766,4.3 -1.039,6.399 l 2.718,-1.399 c -0.217,-1 -0.036,-2 0.486,-2.8 l -2.165,-2.2 z m 4.176,2.7 c -0.781,0.8 -0.781,2.1 0,2.9 0.781,0.799 2.047,0.799 2.828,0 0.781,-0.801 0.781,-2.101 0,-2.9 -0.781,-0.7 -2.047,-0.7 -2.828,0 z m 5.435,-4.2 -1.392,2.7 c 0.062,0 0.138,0.1 0.198,0.1 0.689,0.7 1.068,1.6 1.148,2.5 l 3.006,0.5 c 0.022,-1.9 -0.644,-3.7 -2.032,-5.1 -0.287,-0.3 -0.606,-0.5 -0.928,-0.7 z m -9.722,9.7 c 0.227,0.3 0.464,0.6 0.751,0.9 1.389,1.399 3.218,2.1 5.038,2 l -0.442,-3 c -0.9,0 -1.785,-0.4 -2.475,-1.101 -0.06,-0.101 -0.099,-0.101 -0.154,-0.2 l -2.718,1.401 0,0 z m 9.369,-2.4 c -0.193,0.4 -0.475,0.801 -0.84,1.2 -0.365,0.399 -0.79,0.601 -1.237,0.8 l 0.464,3.1 c 1.059,-0.399 2.059,-1 2.896,-1.799 0.837,-0.801 1.421,-1.801 1.745,-2.9 l -3.028,-0.401 0,0 z" /></g></svg>