<?xml version="1.0" encoding="UTF-8" standalone="no"?>
<svg
   xmlns:dc="http://purl.org/dc/elements/1.1/"
   xmlns:cc="http://creativecommons.org/ns#"
   xmlns:rdf="http://www.w3.org/1999/02/22-rdf-syntax-ns#"
   xmlns:svg="http://www.w3.org/2000/svg"
   xmlns="http://www.w3.org/2000/svg"
   xmlns:sodipodi="http://sodipodi.sourceforge.net/DTD/sodipodi-0.dtd"
   xmlns:inkscape="http://www.inkscape.org/namespaces/inkscape"
   version="1.1"
   x="0px"
   y="0px"
   width="24"
   height="24"
   viewBox="0 0 24 24"
   enable-background="new 0 0 32 32"
   xml:space="preserve"
   id="svg2"
   inkscape:version="0.91 r13725"
   sodipodi:docname="settings.svg"><metadata
     id="metadata8"><rdf:RDF><cc:Work
         rdf:about=""><dc:format>image/svg+xml</dc:format><dc:type
           rdf:resource="http://purl.org/dc/dcmitype/StillImage" /><dc:title></dc:title></cc:Work></rdf:RDF></metadata><defs
     id="defs13" /><sodipodi:namedview
     pagecolor="#ffffff"
     bordercolor="#666666"
     borderopacity="1"
     objecttolerance="10"
     gridtolerance="10"
     guidetolerance="10"
     inkscape:pageopacity="0"
     inkscape:pageshadow="2"
     inkscape:window-width="1280"
     inkscape:window-height="953"
     id="namedview11"
     showgrid="false"
     inkscape:zoom="14.75"
     inkscape:cx="9.628772"
     inkscape:cy="11.004803"
     inkscape:window-x="0"
     inkscape:window-y="42"
     inkscape:window-maximized="1"
     inkscape:current-layer="svg2" /><g
     id="background"
     transform="translate(0,-8)"><rect
       width="32"
       height="32"
       id="rect6"
       x="0"
       y="0"
       style="fill:none" /></g><path
     id="path9"
     d="m 23.694915,13.679547 0,-3.359934 -3.50931,0 C 19.976767,9.2886949 19.576634,8.3300338 19.030314,7.4747165 L 21.534697,4.9549756 19.170653,2.5789079 16.703861,5.0591596 C 15.803354,4.4399369 14.776707,3.9929538 13.670702,3.7669417 l 0,-3.52965363 -3.341405,0 0,3.52965363 C 9.2625548,3.9853921 8.2718281,4.4096899 7.3955447,4.9927843 L 4.9947457,2.5789079 2.6315375,4.9541354 5.0323365,7.3705325 C 4.4526029,8.2518957 4.0307506,9.2475253 3.8143946,10.319613 l -3.50930985,0 0,3.360775 3.51014525,0 C 4.0399394,14.792804 4.4843462,15.825402 5.1,16.731131 L 2.6323728,19.212223 4.9964164,21.589971 7.500799,19.07023 c 0.8512227,0.549487 1.8043587,0.95278 2.829333,1.162828 l 0,3.529654 3.340569,0 0,-3.529654 c 1.065908,-0.21845 2.05747,-0.641908 2.933753,-1.225842 l 2.567034,2.582755 2.364044,-2.377748 -2.567869,-2.581915 c 0.579734,-0.882204 1.001586,-1.877833 1.217942,-2.950761 l 3.50931,0 z M 12,17.040322 C 9.2324818,17.035322 6.9929055,14.781881 6.9870581,12 6.9937381,9.2164382 9.2324818,6.9638788 12,6.9588376 14.766683,6.9638776 17.006259,9.2155979 17.011271,12 17.006271,14.782722 14.766683,17.035281 12,17.040322 Z"
     style="fill:#ffffff"
     inkscape:connector-curvature="0" /></svg>